<mxfile host="Electron" modified="2023-11-09T22:10:10.958Z" agent="Mozilla/5.0 (Windows NT 10.0; Win64; x64) AppleWebKit/537.36 (KHTML, like Gecko) draw.io/21.6.8 Chrome/114.0.5735.289 Electron/25.5.0 Safari/537.36" etag="FzN6g56_hRUyB9q7rpu1" version="21.6.8" type="device">
  <diagram name="Page-1" id="s7mOWQtbKwLBha3uq5sU">
    <mxGraphModel dx="1292" dy="1445" grid="1" gridSize="10" guides="1" tooltips="1" connect="1" arrows="1" fold="1" page="1" pageScale="1" pageWidth="1169" pageHeight="827" math="0" shadow="0">
      <root>
        <mxCell id="0" />
        <mxCell id="1" parent="0" />
        <mxCell id="mj3FLYvMupQRfN18O-8B-17" value="_start, &lt;br&gt;sendGameData(GameData_t)" style="edgeStyle=orthogonalEdgeStyle;rounded=0;orthogonalLoop=1;jettySize=auto;html=1;" parent="1" source="mj3FLYvMupQRfN18O-8B-1" target="mj3FLYvMupQRfN18O-8B-15" edge="1">
          <mxGeometry x="0.0476" y="-25" relative="1" as="geometry">
            <Array as="points">
              <mxPoint x="280" y="95" />
            </Array>
            <mxPoint as="offset" />
          </mxGeometry>
        </mxCell>
        <mxCell id="mj3FLYvMupQRfN18O-8B-18" value="startGame" style="edgeStyle=orthogonalEdgeStyle;rounded=0;orthogonalLoop=1;jettySize=auto;html=1;" parent="1" source="mj3FLYvMupQRfN18O-8B-1" target="mj3FLYvMupQRfN18O-8B-14" edge="1">
          <mxGeometry x="-0.0526" y="15" relative="1" as="geometry">
            <Array as="points">
              <mxPoint x="700" y="90" />
            </Array>
            <mxPoint as="offset" />
          </mxGeometry>
        </mxCell>
        <mxCell id="mj3FLYvMupQRfN18O-8B-19" value="getPlayerNum" style="edgeStyle=orthogonalEdgeStyle;rounded=0;orthogonalLoop=1;jettySize=auto;html=1;" parent="1" source="mj3FLYvMupQRfN18O-8B-1" target="mj3FLYvMupQRfN18O-8B-2" edge="1">
          <mxGeometry x="0.625" y="-10" relative="1" as="geometry">
            <Array as="points">
              <mxPoint x="550" y="230" />
              <mxPoint x="550" y="230" />
            </Array>
            <mxPoint as="offset" />
          </mxGeometry>
        </mxCell>
        <mxCell id="mj3FLYvMupQRfN18O-8B-1" value="&amp;lt;&amp;lt;control&amp;gt;&amp;gt;&lt;br&gt;ConnectControl" style="shape=rect;rounded=1;html=1;whiteSpace=wrap;align=center;" parent="1" vertex="1">
          <mxGeometry x="400" y="70" width="190" height="70" as="geometry" />
        </mxCell>
        <mxCell id="mj3FLYvMupQRfN18O-8B-2" value="&amp;lt;&amp;lt;entity&amp;gt;&amp;gt;&lt;br&gt;GameData" style="shape=rect;rounded=1;html=1;whiteSpace=wrap;align=center;" parent="1" vertex="1">
          <mxGeometry x="490" y="300" width="130" height="70" as="geometry" />
        </mxCell>
        <mxCell id="mj3FLYvMupQRfN18O-8B-3" value="&amp;lt;&amp;lt;control&amp;gt;&amp;gt;&lt;br&gt;SpeakerControl" style="shape=rect;rounded=1;html=1;whiteSpace=wrap;align=center;" parent="1" vertex="1">
          <mxGeometry x="610" y="491" width="130" height="70" as="geometry" />
        </mxCell>
        <mxCell id="mj3FLYvMupQRfN18O-8B-4" value="&amp;lt;&amp;lt;control&amp;gt;&amp;gt;&lt;br&gt;DisplayControl" style="shape=rect;rounded=1;html=1;whiteSpace=wrap;align=center;" parent="1" vertex="1">
          <mxGeometry x="610" y="414" width="130" height="70" as="geometry" />
        </mxCell>
        <mxCell id="mj3FLYvMupQRfN18O-8B-36" style="edgeStyle=orthogonalEdgeStyle;rounded=0;orthogonalLoop=1;jettySize=auto;html=1;" parent="1" source="mj3FLYvMupQRfN18O-8B-5" target="mj3FLYvMupQRfN18O-8B-14" edge="1">
          <mxGeometry relative="1" as="geometry">
            <Array as="points">
              <mxPoint x="990" y="475" />
              <mxPoint x="990" y="210" />
            </Array>
          </mxGeometry>
        </mxCell>
        <mxCell id="mj3FLYvMupQRfN18O-8B-5" value="&amp;lt;&amp;lt;boundary&amp;gt;&amp;gt;&lt;br&gt;TriggerButton" style="shape=rect;rounded=1;html=1;whiteSpace=wrap;align=center;" parent="1" vertex="1">
          <mxGeometry x="1010" y="440" width="130" height="70" as="geometry" />
        </mxCell>
        <mxCell id="mj3FLYvMupQRfN18O-8B-35" value="buttonPressed(IButton*)" style="edgeStyle=orthogonalEdgeStyle;rounded=0;orthogonalLoop=1;jettySize=auto;html=1;" parent="1" source="mj3FLYvMupQRfN18O-8B-6" target="mj3FLYvMupQRfN18O-8B-14" edge="1">
          <mxGeometry x="0.518" y="-10" relative="1" as="geometry">
            <Array as="points">
              <mxPoint x="990" y="395" />
              <mxPoint x="990" y="210" />
            </Array>
            <mxPoint as="offset" />
          </mxGeometry>
        </mxCell>
        <mxCell id="mj3FLYvMupQRfN18O-8B-6" value="&amp;lt;&amp;lt;boundary&amp;gt;&amp;gt;&lt;br&gt;ReloadButton" style="shape=rect;rounded=1;html=1;whiteSpace=wrap;align=center;" parent="1" vertex="1">
          <mxGeometry x="1010" y="360" width="130" height="70" as="geometry" />
        </mxCell>
        <mxCell id="mj3FLYvMupQRfN18O-8B-46" value="hitReceived(damage, &lt;br&gt;playerNum, teamNum)" style="edgeStyle=orthogonalEdgeStyle;rounded=0;orthogonalLoop=1;jettySize=auto;html=1;" parent="1" source="mj3FLYvMupQRfN18O-8B-7" target="mj3FLYvMupQRfN18O-8B-10" edge="1">
          <mxGeometry y="25" relative="1" as="geometry">
            <mxPoint as="offset" />
            <Array as="points">
              <mxPoint x="950" y="760" />
              <mxPoint x="950" y="760" />
            </Array>
          </mxGeometry>
        </mxCell>
        <mxCell id="PZ7jcESYYNkIbwmXES4s-5" value="getPlayerNum,&lt;br&gt;getTeamNum" style="edgeStyle=orthogonalEdgeStyle;rounded=0;orthogonalLoop=1;jettySize=auto;html=1;" edge="1" parent="1" source="mj3FLYvMupQRfN18O-8B-7" target="PZ7jcESYYNkIbwmXES4s-6">
          <mxGeometry x="-0.3915" y="40" relative="1" as="geometry">
            <mxPoint x="1075.0000000000002" y="860.0000000000002" as="targetPoint" />
            <Array as="points">
              <mxPoint x="1060" y="910" />
            </Array>
            <mxPoint as="offset" />
          </mxGeometry>
        </mxCell>
        <mxCell id="mj3FLYvMupQRfN18O-8B-7" value="&amp;lt;&amp;lt;control&amp;gt;&amp;gt;&lt;br&gt;MessageReceiver" style="shape=rect;rounded=1;html=1;whiteSpace=wrap;align=center;" parent="1" vertex="1">
          <mxGeometry x="1010" y="710" width="130" height="70" as="geometry" />
        </mxCell>
        <mxCell id="mj3FLYvMupQRfN18O-8B-8" value="&amp;lt;&amp;lt;control&amp;gt;&amp;gt;&lt;br&gt;MessageSender" style="shape=rect;rounded=1;html=1;whiteSpace=wrap;align=center;" parent="1" vertex="1">
          <mxGeometry x="1030" y="590" width="130" height="70" as="geometry" />
        </mxCell>
        <mxCell id="PZ7jcESYYNkIbwmXES4s-1" value="gunShotSet,&lt;br&gt;reloadSet" style="edgeStyle=orthogonalEdgeStyle;rounded=0;orthogonalLoop=1;jettySize=auto;html=1;" edge="1" parent="1" source="mj3FLYvMupQRfN18O-8B-9" target="mj3FLYvMupQRfN18O-8B-3">
          <mxGeometry x="-0.6329" y="15" relative="1" as="geometry">
            <Array as="points">
              <mxPoint x="785" y="526" />
            </Array>
            <mxPoint as="offset" />
          </mxGeometry>
        </mxCell>
        <mxCell id="PZ7jcESYYNkIbwmXES4s-2" value="reloadSet,&lt;br&gt;setBulletCount(int),&lt;br&gt;drawDisplaySet" style="edgeStyle=orthogonalEdgeStyle;rounded=0;orthogonalLoop=1;jettySize=auto;html=1;" edge="1" parent="1" source="mj3FLYvMupQRfN18O-8B-9" target="mj3FLYvMupQRfN18O-8B-4">
          <mxGeometry x="-0.1429" y="25" relative="1" as="geometry">
            <Array as="points">
              <mxPoint x="830" y="470" />
            </Array>
            <mxPoint as="offset" />
          </mxGeometry>
        </mxCell>
        <mxCell id="mj3FLYvMupQRfN18O-8B-9" value="&amp;lt;&amp;lt;control&amp;gt;&amp;gt;&lt;br&gt;ShootingControl" style="shape=rect;rounded=1;html=1;whiteSpace=wrap;align=center;" parent="1" vertex="1">
          <mxGeometry x="720" y="590" width="170" height="70" as="geometry" />
        </mxCell>
        <mxCell id="mj3FLYvMupQRfN18O-8B-10" value="&amp;lt;&amp;lt;control&amp;gt;&amp;gt;&lt;br&gt;ReceivingHitControl" style="shape=rect;rounded=1;html=1;whiteSpace=wrap;align=center;" parent="1" vertex="1">
          <mxGeometry x="720" y="710" width="130" height="70" as="geometry" />
        </mxCell>
        <mxCell id="mj3FLYvMupQRfN18O-8B-27" value="sendPostGameData(hits, health, shotsTaken)" style="edgeStyle=orthogonalEdgeStyle;rounded=0;orthogonalLoop=1;jettySize=auto;html=1;" parent="1" source="mj3FLYvMupQRfN18O-8B-11" target="mj3FLYvMupQRfN18O-8B-1" edge="1">
          <mxGeometry x="-0.6224" y="20" relative="1" as="geometry">
            <Array as="points">
              <mxPoint x="215" y="580" />
              <mxPoint x="430" y="580" />
            </Array>
            <mxPoint as="offset" />
          </mxGeometry>
        </mxCell>
        <mxCell id="mj3FLYvMupQRfN18O-8B-11" value="&amp;lt;&amp;lt;control&amp;gt;&amp;gt;&lt;br&gt;SendPostGameDataControl" style="shape=rect;rounded=1;html=1;whiteSpace=wrap;align=center;" parent="1" vertex="1">
          <mxGeometry x="110" y="640" width="210" height="70" as="geometry" />
        </mxCell>
        <mxCell id="mj3FLYvMupQRfN18O-8B-16" value="_start" style="edgeStyle=orthogonalEdgeStyle;rounded=0;orthogonalLoop=1;jettySize=auto;html=1;" parent="1" source="mj3FLYvMupQRfN18O-8B-12" target="mj3FLYvMupQRfN18O-8B-11" edge="1">
          <mxGeometry x="-0.1429" y="-15" relative="1" as="geometry">
            <mxPoint as="offset" />
          </mxGeometry>
        </mxCell>
        <mxCell id="mj3FLYvMupQRfN18O-8B-25" value="meldGameOver" style="edgeStyle=orthogonalEdgeStyle;rounded=0;orthogonalLoop=1;jettySize=auto;html=1;" parent="1" source="mj3FLYvMupQRfN18O-8B-12" target="mj3FLYvMupQRfN18O-8B-1" edge="1">
          <mxGeometry x="-0.88" y="50" relative="1" as="geometry">
            <Array as="points">
              <mxPoint x="460" y="510" />
              <mxPoint x="460" y="510" />
            </Array>
            <mxPoint as="offset" />
          </mxGeometry>
        </mxCell>
        <mxCell id="mj3FLYvMupQRfN18O-8B-32" style="edgeStyle=orthogonalEdgeStyle;rounded=0;orthogonalLoop=1;jettySize=auto;html=1;" parent="1" source="mj3FLYvMupQRfN18O-8B-12" target="mj3FLYvMupQRfN18O-8B-9" edge="1">
          <mxGeometry relative="1" as="geometry">
            <Array as="points">
              <mxPoint x="630" y="675" />
              <mxPoint x="630" y="625" />
            </Array>
          </mxGeometry>
        </mxCell>
        <mxCell id="mj3FLYvMupQRfN18O-8B-33" value="disable" style="edgeStyle=orthogonalEdgeStyle;rounded=0;orthogonalLoop=1;jettySize=auto;html=1;" parent="1" source="mj3FLYvMupQRfN18O-8B-12" target="mj3FLYvMupQRfN18O-8B-10" edge="1">
          <mxGeometry x="-0.5123" y="15" relative="1" as="geometry">
            <Array as="points">
              <mxPoint x="630" y="675" />
              <mxPoint x="630" y="760" />
            </Array>
            <mxPoint as="offset" />
          </mxGeometry>
        </mxCell>
        <mxCell id="mj3FLYvMupQRfN18O-8B-42" value="setGameTime(int)&lt;br&gt;getGameTime" style="edgeStyle=orthogonalEdgeStyle;rounded=0;orthogonalLoop=1;jettySize=auto;html=1;" parent="1" source="mj3FLYvMupQRfN18O-8B-12" target="mj3FLYvMupQRfN18O-8B-2" edge="1">
          <mxGeometry x="-0.6299" y="-10" relative="1" as="geometry">
            <Array as="points">
              <mxPoint x="520" y="590" />
              <mxPoint x="520" y="590" />
            </Array>
            <mxPoint as="offset" />
          </mxGeometry>
        </mxCell>
        <mxCell id="mj3FLYvMupQRfN18O-8B-43" style="edgeStyle=orthogonalEdgeStyle;rounded=0;orthogonalLoop=1;jettySize=auto;html=1;" parent="1" source="mj3FLYvMupQRfN18O-8B-12" target="mj3FLYvMupQRfN18O-8B-3" edge="1">
          <mxGeometry relative="1" as="geometry">
            <Array as="points">
              <mxPoint x="590" y="660" />
              <mxPoint x="590" y="540" />
            </Array>
          </mxGeometry>
        </mxCell>
        <mxCell id="mj3FLYvMupQRfN18O-8B-44" value="gameOverSet" style="edgeStyle=orthogonalEdgeStyle;rounded=0;orthogonalLoop=1;jettySize=auto;html=1;" parent="1" source="mj3FLYvMupQRfN18O-8B-12" target="mj3FLYvMupQRfN18O-8B-4" edge="1">
          <mxGeometry x="-0.5646" y="20" relative="1" as="geometry">
            <Array as="points">
              <mxPoint x="590" y="660" />
              <mxPoint x="590" y="460" />
            </Array>
            <mxPoint as="offset" />
          </mxGeometry>
        </mxCell>
        <mxCell id="mj3FLYvMupQRfN18O-8B-12" value="&amp;lt;&amp;lt;control&amp;gt;&amp;gt;&lt;br&gt;GameOverControl" style="shape=rect;rounded=1;html=1;whiteSpace=wrap;align=center;" parent="1" vertex="1">
          <mxGeometry x="430" y="640" width="150" height="70" as="geometry" />
        </mxCell>
        <mxCell id="mj3FLYvMupQRfN18O-8B-37" value="setTimer(int),&lt;br&gt;setLives(int),&lt;br&gt;drawDisplaySet" style="edgeStyle=orthogonalEdgeStyle;rounded=0;orthogonalLoop=1;jettySize=auto;html=1;" parent="1" source="mj3FLYvMupQRfN18O-8B-13" target="mj3FLYvMupQRfN18O-8B-4" edge="1">
          <mxGeometry x="0.3711" y="-29" relative="1" as="geometry">
            <Array as="points">
              <mxPoint x="840" y="449" />
            </Array>
            <mxPoint as="offset" />
          </mxGeometry>
        </mxCell>
        <mxCell id="mj3FLYvMupQRfN18O-8B-39" value="init(maxAmmo)" style="edgeStyle=orthogonalEdgeStyle;rounded=0;orthogonalLoop=1;jettySize=auto;html=1;" parent="1" source="mj3FLYvMupQRfN18O-8B-13" target="mj3FLYvMupQRfN18O-8B-9" edge="1">
          <mxGeometry x="0.4" y="20" relative="1" as="geometry">
            <Array as="points">
              <mxPoint x="860" y="550" />
              <mxPoint x="860" y="550" />
            </Array>
            <mxPoint as="offset" />
          </mxGeometry>
        </mxCell>
        <mxCell id="mj3FLYvMupQRfN18O-8B-40" value="init()" style="edgeStyle=orthogonalEdgeStyle;rounded=0;orthogonalLoop=1;jettySize=auto;html=1;" parent="1" source="mj3FLYvMupQRfN18O-8B-13" target="mj3FLYvMupQRfN18O-8B-10" edge="1">
          <mxGeometry x="0.7882" y="-10" relative="1" as="geometry">
            <Array as="points">
              <mxPoint x="930" y="690" />
              <mxPoint x="785" y="690" />
            </Array>
            <mxPoint as="offset" />
          </mxGeometry>
        </mxCell>
        <mxCell id="mj3FLYvMupQRfN18O-8B-41" value="_start" style="edgeStyle=orthogonalEdgeStyle;rounded=0;orthogonalLoop=1;jettySize=auto;html=1;" parent="1" source="mj3FLYvMupQRfN18O-8B-13" target="mj3FLYvMupQRfN18O-8B-12" edge="1">
          <mxGeometry x="-0.8148" y="-10" relative="1" as="geometry">
            <Array as="points">
              <mxPoint x="660" y="380" />
              <mxPoint x="660" y="400" />
              <mxPoint x="490" y="400" />
            </Array>
            <mxPoint as="offset" />
          </mxGeometry>
        </mxCell>
        <mxCell id="mj3FLYvMupQRfN18O-8B-13" value="&amp;lt;&amp;lt;control&amp;gt;&amp;gt;&lt;br&gt;GameStateControl&lt;br&gt;" style="shape=rect;rounded=1;html=1;whiteSpace=wrap;align=center;" parent="1" vertex="1">
          <mxGeometry x="760" y="310" width="200" height="80" as="geometry" />
        </mxCell>
        <mxCell id="mj3FLYvMupQRfN18O-8B-21" value="sendReady" style="edgeStyle=orthogonalEdgeStyle;rounded=0;orthogonalLoop=1;jettySize=auto;html=1;" parent="1" source="mj3FLYvMupQRfN18O-8B-14" target="mj3FLYvMupQRfN18O-8B-1" edge="1">
          <mxGeometry x="0.3143" y="10" relative="1" as="geometry">
            <Array as="points">
              <mxPoint x="675" y="110" />
            </Array>
            <mxPoint as="offset" />
          </mxGeometry>
        </mxCell>
        <mxCell id="mj3FLYvMupQRfN18O-8B-34" value="_start" style="edgeStyle=orthogonalEdgeStyle;rounded=0;orthogonalLoop=1;jettySize=auto;html=1;" parent="1" source="mj3FLYvMupQRfN18O-8B-14" target="mj3FLYvMupQRfN18O-8B-13" edge="1">
          <mxGeometry x="-0.2308" y="20" relative="1" as="geometry">
            <Array as="points">
              <mxPoint x="720" y="330" />
            </Array>
            <mxPoint as="offset" />
          </mxGeometry>
        </mxCell>
        <mxCell id="mj3FLYvMupQRfN18O-8B-38" value="getHealth,&lt;br&gt;getMaxAmmo,&lt;br&gt;getGameTime,&lt;br&gt;setGameTime" style="edgeStyle=orthogonalEdgeStyle;rounded=0;orthogonalLoop=1;jettySize=auto;html=1;" parent="1" source="mj3FLYvMupQRfN18O-8B-14" target="mj3FLYvMupQRfN18O-8B-2" edge="1">
          <mxGeometry x="-0.6002" y="-40" relative="1" as="geometry">
            <Array as="points">
              <mxPoint x="680" y="330" />
            </Array>
            <mxPoint as="offset" />
          </mxGeometry>
        </mxCell>
        <mxCell id="mj3FLYvMupQRfN18O-8B-14" value="&amp;lt;&amp;lt;control&amp;gt;&amp;gt;&lt;br&gt;ReadyUpControl" style="shape=rect;rounded=1;html=1;whiteSpace=wrap;align=center;" parent="1" vertex="1">
          <mxGeometry x="610" y="170" width="130" height="70" as="geometry" />
        </mxCell>
        <mxCell id="mj3FLYvMupQRfN18O-8B-20" value="getGameData" style="edgeStyle=orthogonalEdgeStyle;rounded=0;orthogonalLoop=1;jettySize=auto;html=1;" parent="1" source="mj3FLYvMupQRfN18O-8B-15" target="mj3FLYvMupQRfN18O-8B-1" edge="1">
          <mxGeometry x="0.4118" y="-10" relative="1" as="geometry">
            <Array as="points">
              <mxPoint x="300" y="110" />
            </Array>
            <mxPoint as="offset" />
          </mxGeometry>
        </mxCell>
        <mxCell id="mj3FLYvMupQRfN18O-8B-22" value="_start" style="edgeStyle=orthogonalEdgeStyle;rounded=0;orthogonalLoop=1;jettySize=auto;html=1;jumpStyle=arc;jumpSize=10;" parent="1" source="mj3FLYvMupQRfN18O-8B-15" target="mj3FLYvMupQRfN18O-8B-14" edge="1">
          <mxGeometry x="-0.76" y="15" relative="1" as="geometry">
            <mxPoint as="offset" />
          </mxGeometry>
        </mxCell>
        <mxCell id="mj3FLYvMupQRfN18O-8B-28" value="setData(GameData_t)" style="edgeStyle=orthogonalEdgeStyle;rounded=0;orthogonalLoop=1;jettySize=auto;html=1;jumpStyle=arc;jumpSize=10;" parent="1" source="mj3FLYvMupQRfN18O-8B-15" target="mj3FLYvMupQRfN18O-8B-2" edge="1">
          <mxGeometry x="-0.8596" y="-65" relative="1" as="geometry">
            <Array as="points">
              <mxPoint x="270" y="330" />
            </Array>
            <mxPoint as="offset" />
          </mxGeometry>
        </mxCell>
        <mxCell id="mj3FLYvMupQRfN18O-8B-29" value="startUpSet" style="edgeStyle=orthogonalEdgeStyle;rounded=0;orthogonalLoop=1;jettySize=auto;html=1;jumpStyle=arc;jumpSize=10;" parent="1" source="mj3FLYvMupQRfN18O-8B-15" target="mj3FLYvMupQRfN18O-8B-3" edge="1">
          <mxGeometry x="0.1597" y="10" relative="1" as="geometry">
            <Array as="points">
              <mxPoint x="295" y="520" />
            </Array>
            <mxPoint as="offset" />
          </mxGeometry>
        </mxCell>
        <mxCell id="mj3FLYvMupQRfN18O-8B-31" value="startUpSet" style="edgeStyle=orthogonalEdgeStyle;rounded=0;orthogonalLoop=1;jettySize=auto;html=1;jumpStyle=arc;jumpSize=10;" parent="1" source="mj3FLYvMupQRfN18O-8B-15" target="mj3FLYvMupQRfN18O-8B-4" edge="1">
          <mxGeometry y="10" relative="1" as="geometry">
            <Array as="points">
              <mxPoint x="330" y="440" />
            </Array>
            <mxPoint as="offset" />
          </mxGeometry>
        </mxCell>
        <mxCell id="mj3FLYvMupQRfN18O-8B-15" value="&amp;lt;&amp;lt;control&amp;gt;&amp;gt;&lt;br&gt;GameSetupControl" style="shape=rect;rounded=1;html=1;whiteSpace=wrap;align=center;" parent="1" vertex="1">
          <mxGeometry x="230" y="170" width="130" height="70" as="geometry" />
        </mxCell>
        <mxCell id="mj3FLYvMupQRfN18O-8B-45" value="getShotsTaken,&lt;br&gt;getHits,&lt;br&gt;getHealth" style="edgeStyle=orthogonalEdgeStyle;rounded=0;orthogonalLoop=1;jettySize=auto;html=1;jumpStyle=arc;jumpSize=10;" parent="1" source="mj3FLYvMupQRfN18O-8B-11" target="mj3FLYvMupQRfN18O-8B-2" edge="1">
          <mxGeometry x="-0.9032" y="50" relative="1" as="geometry">
            <Array as="points">
              <mxPoint x="160" y="350" />
            </Array>
            <mxPoint as="offset" />
          </mxGeometry>
        </mxCell>
        <mxCell id="mj3FLYvMupQRfN18O-8B-47" value="sendShoot(damage, &lt;br&gt;playerNum, teamNum)" style="edgeStyle=orthogonalEdgeStyle;rounded=0;orthogonalLoop=1;jettySize=auto;html=1;jumpSize=10;jumpStyle=arc;" parent="1" source="mj3FLYvMupQRfN18O-8B-9" target="mj3FLYvMupQRfN18O-8B-8" edge="1">
          <mxGeometry x="0.8571" y="-25" relative="1" as="geometry">
            <mxPoint as="offset" />
          </mxGeometry>
        </mxCell>
        <mxCell id="PZ7jcESYYNkIbwmXES4s-3" value="getWeaponDamage,&lt;br&gt;getPlayerNum,&lt;br&gt;getTeamNum,&lt;br&gt;getShotsTaken,&lt;br&gt;getMaxAmmo,&lt;br&gt;getReloadTime" style="edgeStyle=orthogonalEdgeStyle;rounded=0;orthogonalLoop=1;jettySize=auto;html=1;jumpStyle=arc;jumpSize=10;" edge="1" parent="1" source="mj3FLYvMupQRfN18O-8B-9" target="PZ7jcESYYNkIbwmXES4s-6">
          <mxGeometry x="0.1456" y="-60" relative="1" as="geometry">
            <Array as="points">
              <mxPoint x="760" y="670" />
              <mxPoint x="690" y="670" />
              <mxPoint x="690" y="920" />
            </Array>
            <mxPoint as="offset" />
          </mxGeometry>
        </mxCell>
        <mxCell id="PZ7jcESYYNkIbwmXES4s-4" value="addHit(time, hit.playerNum),&lt;br&gt;getGameTime,&lt;br&gt;getHealth" style="edgeStyle=orthogonalEdgeStyle;rounded=0;orthogonalLoop=1;jettySize=auto;html=1;jumpStyle=arc;jumpSize=10;" edge="1" parent="1" source="mj3FLYvMupQRfN18O-8B-10" target="PZ7jcESYYNkIbwmXES4s-6">
          <mxGeometry x="1" y="58" relative="1" as="geometry">
            <Array as="points">
              <mxPoint x="785" y="900" />
            </Array>
            <mxPoint x="30" y="8" as="offset" />
          </mxGeometry>
        </mxCell>
        <mxCell id="PZ7jcESYYNkIbwmXES4s-6" value="&amp;lt;&amp;lt;entity&amp;gt;&amp;gt;&lt;br&gt;GameData&lt;br&gt;(for clearer diagram)" style="rounded=1;whiteSpace=wrap;html=1;sketch=1;curveFitting=1;jiggle=2;" vertex="1" parent="1">
          <mxGeometry x="840" y="880" width="120" height="60" as="geometry" />
        </mxCell>
        <mxCell id="PZ7jcESYYNkIbwmXES4s-7" value="hitSet" style="edgeStyle=orthogonalEdgeStyle;rounded=0;orthogonalLoop=1;jettySize=auto;html=1;jumpStyle=arc;jumpSize=10;" edge="1" parent="1" source="mj3FLYvMupQRfN18O-8B-10" target="mj3FLYvMupQRfN18O-8B-3">
          <mxGeometry x="0.1872" relative="1" as="geometry">
            <Array as="points">
              <mxPoint x="670" y="730" />
            </Array>
            <mxPoint as="offset" />
          </mxGeometry>
        </mxCell>
        <mxCell id="PZ7jcESYYNkIbwmXES4s-8" value="setLives(int),&lt;br&gt;drawDisplaySet" style="edgeStyle=orthogonalEdgeStyle;rounded=0;orthogonalLoop=1;jettySize=auto;html=1;jumpStyle=arc;jumpSize=10;" edge="1" parent="1" source="mj3FLYvMupQRfN18O-8B-10" target="mj3FLYvMupQRfN18O-8B-4">
          <mxGeometry x="-0.7373" y="-40" relative="1" as="geometry">
            <Array as="points">
              <mxPoint x="910" y="745" />
              <mxPoint x="910" y="460" />
            </Array>
            <mxPoint as="offset" />
          </mxGeometry>
        </mxCell>
        <mxCell id="PZ7jcESYYNkIbwmXES4s-9" value="buttonPressed(IButton*)" style="edgeStyle=orthogonalEdgeStyle;rounded=0;orthogonalLoop=1;jettySize=auto;html=1;jumpStyle=arc;jumpSize=10;" edge="1" parent="1" source="mj3FLYvMupQRfN18O-8B-5" target="mj3FLYvMupQRfN18O-8B-9">
          <mxGeometry x="-0.6924" y="10" relative="1" as="geometry">
            <Array as="points">
              <mxPoint x="1050" y="560" />
              <mxPoint x="990" y="560" />
              <mxPoint x="990" y="610" />
            </Array>
            <mxPoint as="offset" />
          </mxGeometry>
        </mxCell>
      </root>
    </mxGraphModel>
  </diagram>
</mxfile>
